<svg xmlns="http://www.w3.org/2000/svg" viewBox="0 0 1279.41 899.16"><defs><style>.cls-1{fill:#121212;}.cls-1,.cls-2{stroke:#e9e4d7;stroke-miterlimit:10;stroke-width:2px;}.cls-2{fill:none;}</style></defs><title>Asset 1</title><g id="Layer_2" data-name="Layer 2"><g id="Layer_1-2" data-name="Layer 1"><rect class="cls-1" x="1.09" y="266" width="1012.32" height="632.16" rx="12"/><line class="cls-2" y1="305.1" x2="1012.32" y2="305.1"/><circle class="cls-2" cx="29.87" cy="286.09" r="11.4"/><circle class="cls-2" cx="73.32" cy="286.09" r="11.4"/><circle class="cls-2" cx="116.76" cy="286.09" r="11.4"/><rect class="cls-1" x="27.59" y="239.5" width="1012.32" height="632.16" rx="12"/><line class="cls-2" x1="26.5" y1="278.6" x2="1038.82" y2="278.6"/><circle class="cls-2" cx="56.37" cy="259.59" r="11.4"/><circle class="cls-2" cx="99.82" cy="259.59" r="11.4"/><circle class="cls-2" cx="143.26" cy="259.59" r="11.4"/><rect class="cls-1" x="54.09" y="213" width="1012.32" height="632.16" rx="12"/><line class="cls-2" x1="53" y1="252.1" x2="1065.32" y2="252.1"/><circle class="cls-2" cx="82.87" cy="233.09" r="11.4"/><circle class="cls-2" cx="126.32" cy="233.09" r="11.4"/><circle class="cls-2" cx="169.76" cy="233.09" r="11.4"/><rect class="cls-1" x="80.59" y="186.5" width="1012.32" height="632.16" rx="12"/><line class="cls-2" x1="79.5" y1="225.6" x2="1091.82" y2="225.6"/><circle class="cls-2" cx="109.37" cy="206.59" r="11.4"/><circle class="cls-2" cx="152.82" cy="206.59" r="11.4"/><circle class="cls-2" cx="196.26" cy="206.59" r="11.4"/><rect class="cls-1" x="107.09" y="160" width="1012.32" height="632.16" rx="12"/><line class="cls-2" x1="106" y1="199.1" x2="1118.32" y2="199.1"/><circle class="cls-2" cx="135.87" cy="180.09" r="11.4"/><circle class="cls-2" cx="179.32" cy="180.09" r="11.4"/><circle class="cls-2" cx="222.76" cy="180.09" r="11.4"/><rect class="cls-1" x="133.59" y="133.5" width="1012.32" height="632.16" rx="12"/><line class="cls-2" x1="132.5" y1="172.6" x2="1144.82" y2="172.6"/><circle class="cls-2" cx="162.37" cy="153.59" r="11.4"/><circle class="cls-2" cx="205.82" cy="153.59" r="11.4"/><circle class="cls-2" cx="249.26" cy="153.59" r="11.4"/><rect class="cls-1" x="160.09" y="107" width="1012.32" height="632.16" rx="12"/><line class="cls-2" x1="159" y1="146.1" x2="1171.32" y2="146.1"/><circle class="cls-2" cx="188.87" cy="127.09" r="11.4"/><circle class="cls-2" cx="232.32" cy="127.09" r="11.4"/><circle class="cls-2" cx="275.76" cy="127.09" r="11.4"/><rect class="cls-1" x="186.59" y="80.5" width="1012.32" height="632.16" rx="12"/><line class="cls-2" x1="185.5" y1="119.6" x2="1197.82" y2="119.6"/><circle class="cls-2" cx="215.37" cy="100.59" r="11.4"/><circle class="cls-2" cx="258.82" cy="100.59" r="11.4"/><circle class="cls-2" cx="302.26" cy="100.59" r="11.4"/><rect class="cls-1" x="213.09" y="54" width="1012.32" height="632.16" rx="12"/><line class="cls-2" x1="212" y1="93.1" x2="1224.32" y2="93.1"/><circle class="cls-2" cx="241.87" cy="74.09" r="11.4"/><circle class="cls-2" cx="285.32" cy="74.09" r="11.4"/><circle class="cls-2" cx="328.76" cy="74.09" r="11.4"/><rect class="cls-1" x="239.59" y="27.5" width="1012.32" height="632.16" rx="12"/><line class="cls-2" x1="238.5" y1="66.6" x2="1250.82" y2="66.6"/><circle class="cls-2" cx="268.37" cy="47.59" r="11.4"/><circle class="cls-2" cx="311.82" cy="47.59" r="11.4"/><circle class="cls-2" cx="355.26" cy="47.59" r="11.4"/><rect class="cls-1" x="266.09" y="1" width="1012.32" height="632.16" rx="12"/><line class="cls-2" x1="265" y1="40.1" x2="1277.32" y2="40.1"/><circle class="cls-2" cx="294.87" cy="21.09" r="11.4"/><circle class="cls-2" cx="338.32" cy="21.09" r="11.4"/><circle class="cls-2" cx="381.76" cy="21.09" r="11.4"/></g></g></svg>